<svg xmlns="http://www.w3.org/2000/svg" xmlns:xlink="http://www.w3.org/1999/xlink" width="512" zoomAndPan="magnify" viewBox="0 0 384 383.999986" height="512" preserveAspectRatio="xMidYMid meet" version="1.0"><defs><clipPath id="6b2b29cb9f"><path d="M 159.613281 161.132812 L 224.484375 161.132812 L 224.484375 222.867188 L 159.613281 222.867188 Z M 159.613281 161.132812 " clip-rule="nonzero"/></clipPath><clipPath id="e7613ce7a7"><path d="M 192 161.132812 L 199.644531 184.714844 L 224.386719 184.714844 L 204.371094 199.285156 L 212.015625 222.867188 L 192 208.292969 L 171.984375 222.867188 L 179.628906 199.285156 L 159.613281 184.714844 L 184.355469 184.714844 Z M 192 161.132812 " clip-rule="nonzero"/></clipPath><clipPath id="7499b7d3f1"><path d="M 0.613281 0.132812 L 65.398438 0.132812 L 65.398438 61.867188 L 0.613281 61.867188 Z M 0.613281 0.132812 " clip-rule="nonzero"/></clipPath><clipPath id="310c9054be"><path d="M 33 0.132812 L 40.644531 23.714844 L 65.386719 23.714844 L 45.371094 38.285156 L 53.015625 61.867188 L 33 47.292969 L 12.984375 61.867188 L 20.628906 38.285156 L 0.613281 23.714844 L 25.355469 23.714844 Z M 33 0.132812 " clip-rule="nonzero"/></clipPath><clipPath id="2699f814b8"><rect x="0" width="66" y="0" height="62"/></clipPath></defs><rect x="-38.4" width="460.8" fill="#ffffff" y="-38.399999" height="460.799983" fill-opacity="1"/><rect x="-38.4" width="460.8" fill="#000000" y="-38.399999" height="460.799983" fill-opacity="1"/><g clip-path="url(#6b2b29cb9f)"><g clip-path="url(#e7613ce7a7)"><g transform="matrix(1, 0, 0, 1, 159, 161)"><g clip-path="url(#2699f814b8)"><g clip-path="url(#7499b7d3f1)"><g clip-path="url(#310c9054be)"><path fill="#ffffff" d="M 0.613281 0.132812 L 65.484375 0.132812 L 65.484375 61.867188 L 0.613281 61.867188 Z M 0.613281 0.132812 " fill-opacity="1" fill-rule="nonzero"/></g></g></g></g></g></g></svg>